Coordinates
version=1
nRows=20
nColumns=30
inDegrees=yes

Units are S.I. units (second, meters, Newtons, ...)
Angles are in degrees.

endheader
time	floatyaw	floatroll	floatpitch	floatx	floaty	floatz	pro_sup_l	deviation_l	flexion_l	cmc_flexion_l	cmc_abduction_l	mp_flexion_l	ip_flexion_l	2mcp_flexion_l	2mcp_abduction_l	2pm_flexion_l	2md_flexion_l	3mcp_flexion_l	3mcp_abduction_l	3pm_flexion_l	3md_flexion_l	4mcp_flexion_l	4mcp_abduction_l	4pm_flexion_l	4md_flexion_l	5mcp_flexion_l	5mcp_abduction_l	5pm_flexion_l	5md_flexion_l
-1.495000	-1.899941	-3.552005	97.501371	-0.100889	-0.188084	-0.033730	85.980060	3.126054	-0.896182	13.627758	8.595577	-22.327705	-34.842524	38.679119	10.472895	46.510214	32.598925	22.285518	5.372804	45.790766	32.047309	11.124267	-4.645004	60.962706	42.279230	5.514050	-10.575186	60.966060	42.565401
-1.485000	-1.899941	-3.552005	97.501371	-0.100892	-0.188091	-0.033738	85.951271	3.115035	-0.900015	13.602419	8.610340	-22.315982	-34.827902	38.710867	10.461973	46.487296	32.586447	22.321653	5.369774	45.777796	32.043903	11.137001	-4.638333	60.958119	42.288422	5.522901	-10.580868	60.979050	42.568968
-1.475000	-1.899941	-3.552005	97.501371	-0.100898	-0.188102	-0.033749	85.922680	3.110413	-0.906092	13.568600	8.616129	-22.312044	-34.817410	38.733855	10.446680	46.459331	32.572074	22.356005	5.365300	45.757150	32.033975	11.148848	-4.633442	60.953363	42.295884	5.521036	-10.582467	60.982774	42.567641
-1.465000	-1.899941	-3.552005	97.501371	-0.100907	-0.188115	-0.033762	85.898412	3.112060	-0.913346	13.527271	8.609028	-22.317555	-34.812016	38.745148	10.428172	46.435207	32.561159	22.380468	5.362019	45.733938	32.021447	11.157499	-4.631844	60.949862	42.301529	5.514438	-10.580204	60.977761	42.561022
-1.455000	-1.899941	-3.552005	97.501371	-0.100915	-0.188129	-0.033773	85.879847	3.117433	-0.920308	13.481799	8.589635	-22.332052	-34.811563	38.744545	10.409024	46.421756	32.557680	22.391027	5.362295	45.714363	32.011343	11.161320	-4.633696	60.947833	42.305499	5.512903	-10.576653	60.967725	42.550600
-1.445000	-1.899941	-3.552005	97.501371	-0.100921	-0.188143	-0.033781	85.865512	3.122718	-0.925940	13.437140	8.560661	-22.352881	-34.814780	38.734616	10.392477	46.422640	32.563412	22.388734	5.367258	45.704316	32.008374	11.160127	-4.637794	60.947949	42.308660	5.525553	-10.575752	60.959347	42.538806
-1.435000	-1.899941	-3.552005	97.501371	-0.100923	-0.188156	-0.033786	85.852512	3.124583	-0.930293	13.398258	8.524352	-22.375655	-34.819531	38.720491	10.381102	46.438281	32.577697	22.378888	5.376250	45.707668	32.015369	11.155470	-4.642309	60.952527	42.312717	5.555726	-10.580620	60.960303	42.527895
-1.425000	-1.899941	-3.552005	97.501371	-0.100920	-0.188169	-0.033789	85.838322	3.121490	-0.934458	13.368094	8.482089	-22.395259	-34.823252	38.709231	10.375608	46.466012	32.597563	22.368817	5.387109	45.724723	32.032108	11.150236	-4.645736	60.964921	42.319635	5.598363	-10.591558	60.975955	42.519216
-1.415000	-1.899941	-3.552005	97.501371	-0.100910	-0.188181	-0.033789	85.821954	3.113952	-0.939770	13.346101	8.435983	-22.407186	-34.823493	38.708341	10.374609	46.500130	32.618189	22.365115	5.397260	45.751705	32.055218	11.147799	-4.647472	60.987475	42.330669	5.641842	-10.605728	61.006494	42.513121
-1.405000	-1.899941	-3.552005	97.501371	-0.100894	-0.188190	-0.033785	85.804104	3.103855	-0.946824	13.328390	8.390156	-22.408854	-34.818519	38.723512	10.375562	46.532507	32.633953	22.371310	5.404987	45.782023	32.079452	11.151075	-4.647781	61.019644	42.345641	5.673485	-10.618843	61.046508	42.509310
-1.395000	-1.899941	-3.552005	97.501371	-0.100874	-0.188196	-0.033778	85.786472	3.093403	-0.955003	13.309643	8.349801	-22.400499	-34.807827	38.756403	10.376195	46.554470	32.640108	22.386873	5.410104	45.809022	32.099917	11.161658	-4.647369	61.057609	42.362904	5.685619	-10.627723	61.087449	42.507277
-1.385000	-1.899941	-3.552005	97.501371	-0.100855	-0.188196	-0.033766	85.770794	3.084231	-0.962858	13.285822	8.318573	-22.385217	-34.792400	38.803698	10.375405	46.559814	32.634580	22.407954	5.413642	45.828800	32.114085	11.179215	-4.646970	61.095505	42.379933	5.678755	-10.631796	61.121585	42.506592
-1.375000	-1.899941	-3.552005	97.501371	-0.100839	-0.188193	-0.033752	85.758183	3.076967	-0.969043	13.256247	8.296442	-22.367923	-34.774501	38.858062	10.373173	46.547646	32.619096	22.429441	5.416925	45.841530	32.122511	11.201470	-4.647205	61.127497	42.394201	5.660388	-10.632530	61.145177	42.506960
-1.365000	-1.899941	-3.552005	97.501371	-0.100829	-0.188186	-0.033737	85.749065	3.071269	-0.973197	13.223937	8.279677	-22.353526	-34.756981	38.910583	10.369869	46.523379	32.598913	22.447308	5.420695	45.850621	32.127971	11.225063	-4.648666	61.149779	42.403980	5.640584	-10.631488	61.159382	42.508170
-1.355000	-1.899941	-3.552005	97.501371	-0.100825	-0.188180	-0.033721	85.743553	3.066274	-0.976232	13.193946	8.262971	-22.345125	-34.742330	38.953552	10.365674	46.496911	32.581028	22.460145	5.424785	45.860355	32.133610	11.247058	-4.651959	61.161729	42.408817	5.627255	-10.628830	61.168813	42.510011
-1.345000	-1.899941	-3.552005	97.501371	-0.100825	-0.188176	-0.033705	85.741654	3.061154	-0.979799	13.170553	8.242376	-22.343085	-34.731853	38.982627	10.360499	46.478592	32.571493	22.469329	5.428416	45.873375	32.141183	11.266200	-4.657516	61.165738	42.409564	5.623625	-10.623523	61.178764	42.512186
-1.335000	-1.899941	-3.552005	97.501371	-0.100827	-0.188174	-0.033687	85.742830	3.055408	-0.985184	13.154829	8.217462	-22.345385	-34.725327	38.997882	10.354262	46.474930	32.573003	22.477954	5.430816	45.889420	32.150324	11.283091	-4.665295	61.165715	42.407908	5.628486	-10.614876	61.192438	42.514265
-1.325000	-1.899941	-3.552005	97.501371	-0.100830	-0.188174	-0.033666	85.745263	3.048704	-0.992328	13.144010	8.191638	-22.348959	-34.721331	39.003544	10.347153	46.486205	32.583930	22.489146	5.431796	45.905909	32.159170	11.299237	-4.674658	61.164945	42.405602	5.638004	-10.603784	61.209314	42.515689
-1.315000	-1.899941	-3.552005	97.501371	-0.100831	-0.188174	-0.033642	85.745808	3.040615	-0.999709	13.132971	8.170560	-22.351295	-34.718095	39.006362	10.339563	46.507163	32.599333	22.504494	5.431935	45.919887	32.165859	11.315811	-4.684582	61.164545	42.403762	5.647588	-10.592393	61.225330	42.515869
-1.305000	-1.899941	-3.552005	97.501371	-0.100831	-0.188171	-0.033617	85.741319	3.030706	-1.005230	13.116883	8.159371	-22.351530	-34.714415	39.012891	10.331757	46.530327	32.613511	22.523196	5.432318	45.930112	32.169935	11.333071	-4.694078	61.163523	42.402606	5.653224	-10.582424	61.234850	42.514300
